<mxfile host="app.diagrams.net" agent="Mozilla/5.0 (Windows NT 10.0; Win64; x64) AppleWebKit/537.36 (KHTML, like Gecko) Chrome/134.0.0.0 Safari/537.36" version="26.1.0">
  <diagram name="Page-1" id="9ZwSuFPmCP3sUsyAq8Kq">
    <mxGraphModel dx="1131" dy="581" grid="1" gridSize="10" guides="1" tooltips="1" connect="1" arrows="1" fold="1" page="1" pageScale="1" pageWidth="850" pageHeight="1100" math="0" shadow="0">
      <root>
        <mxCell id="0" />
        <mxCell id="1" parent="0" />
        <mxCell id="RKVbmvWTHloRcLlpT78R-5" value="" style="edgeStyle=orthogonalEdgeStyle;rounded=0;orthogonalLoop=1;jettySize=auto;html=1;" edge="1" parent="1" source="RKVbmvWTHloRcLlpT78R-1" target="RKVbmvWTHloRcLlpT78R-4">
          <mxGeometry relative="1" as="geometry" />
        </mxCell>
        <mxCell id="RKVbmvWTHloRcLlpT78R-1" value="Lamp dosent work" style="rounded=1;whiteSpace=wrap;html=1;" vertex="1" parent="1">
          <mxGeometry x="-30" y="100" width="120" height="60" as="geometry" />
        </mxCell>
        <mxCell id="RKVbmvWTHloRcLlpT78R-7" value="" style="edgeStyle=orthogonalEdgeStyle;rounded=0;orthogonalLoop=1;jettySize=auto;html=1;" edge="1" parent="1" source="RKVbmvWTHloRcLlpT78R-4" target="RKVbmvWTHloRcLlpT78R-6">
          <mxGeometry relative="1" as="geometry" />
        </mxCell>
        <mxCell id="RKVbmvWTHloRcLlpT78R-10" value="" style="edgeStyle=orthogonalEdgeStyle;rounded=0;orthogonalLoop=1;jettySize=auto;html=1;" edge="1" parent="1" source="RKVbmvWTHloRcLlpT78R-4" target="RKVbmvWTHloRcLlpT78R-8">
          <mxGeometry relative="1" as="geometry" />
        </mxCell>
        <mxCell id="RKVbmvWTHloRcLlpT78R-4" value="Lamp plugged in?" style="rhombus;whiteSpace=wrap;html=1;" vertex="1" parent="1">
          <mxGeometry x="-10" y="250" width="80" height="80" as="geometry" />
        </mxCell>
        <mxCell id="RKVbmvWTHloRcLlpT78R-14" value="" style="edgeStyle=orthogonalEdgeStyle;rounded=0;orthogonalLoop=1;jettySize=auto;html=1;" edge="1" parent="1" source="RKVbmvWTHloRcLlpT78R-6" target="RKVbmvWTHloRcLlpT78R-13">
          <mxGeometry relative="1" as="geometry" />
        </mxCell>
        <mxCell id="RKVbmvWTHloRcLlpT78R-17" value="YES" style="edgeLabel;html=1;align=center;verticalAlign=middle;resizable=0;points=[];" vertex="1" connectable="0" parent="RKVbmvWTHloRcLlpT78R-14">
          <mxGeometry x="-0.1282" y="3" relative="1" as="geometry">
            <mxPoint as="offset" />
          </mxGeometry>
        </mxCell>
        <mxCell id="RKVbmvWTHloRcLlpT78R-16" value="" style="edgeStyle=orthogonalEdgeStyle;rounded=0;orthogonalLoop=1;jettySize=auto;html=1;" edge="1" parent="1" source="RKVbmvWTHloRcLlpT78R-6" target="RKVbmvWTHloRcLlpT78R-15">
          <mxGeometry relative="1" as="geometry" />
        </mxCell>
        <mxCell id="RKVbmvWTHloRcLlpT78R-18" value="NO" style="edgeLabel;html=1;align=center;verticalAlign=middle;resizable=0;points=[];" vertex="1" connectable="0" parent="RKVbmvWTHloRcLlpT78R-16">
          <mxGeometry x="0.2741" y="1" relative="1" as="geometry">
            <mxPoint as="offset" />
          </mxGeometry>
        </mxCell>
        <mxCell id="RKVbmvWTHloRcLlpT78R-6" value="Bulb burned out?" style="rhombus;whiteSpace=wrap;html=1;" vertex="1" parent="1">
          <mxGeometry x="-15" y="390" width="90" height="80" as="geometry" />
        </mxCell>
        <mxCell id="RKVbmvWTHloRcLlpT78R-8" value="Plug in lamp" style="rounded=1;whiteSpace=wrap;html=1;" vertex="1" parent="1">
          <mxGeometry x="150" y="260" width="120" height="60" as="geometry" />
        </mxCell>
        <mxCell id="RKVbmvWTHloRcLlpT78R-11" value="NO" style="text;html=1;align=center;verticalAlign=middle;resizable=0;points=[];autosize=1;strokeColor=none;fillColor=none;" vertex="1" parent="1">
          <mxGeometry x="80" y="270" width="40" height="30" as="geometry" />
        </mxCell>
        <mxCell id="RKVbmvWTHloRcLlpT78R-12" value="YES" style="text;html=1;align=center;verticalAlign=middle;resizable=0;points=[];autosize=1;strokeColor=none;fillColor=none;" vertex="1" parent="1">
          <mxGeometry x="20" y="338" width="50" height="30" as="geometry" />
        </mxCell>
        <mxCell id="RKVbmvWTHloRcLlpT78R-13" value="Replace Bulb" style="rounded=1;whiteSpace=wrap;html=1;" vertex="1" parent="1">
          <mxGeometry x="140" y="400" width="120" height="60" as="geometry" />
        </mxCell>
        <mxCell id="RKVbmvWTHloRcLlpT78R-15" value="Repeat Lamp" style="rounded=1;whiteSpace=wrap;html=1;" vertex="1" parent="1">
          <mxGeometry x="-30" y="560" width="120" height="60" as="geometry" />
        </mxCell>
      </root>
    </mxGraphModel>
  </diagram>
</mxfile>
